<svg width="71" height="71" viewBox="0 0 71 71" fill="none" xmlns="http://www.w3.org/2000/svg">
<path d="M56.2084 20.7083C56.2084 17.4541 53.5459 14.7916 50.2918 14.7916H41.4167V20.7083H50.2918V28.5479L39.9968 41.4166H29.5834V26.625H17.7501C11.2122 26.625 5.91675 31.9204 5.91675 38.4583V47.3333H11.8334C11.8334 52.2441 15.7976 56.2083 20.7084 56.2083C25.6192 56.2083 29.5834 52.2441 29.5834 47.3333H42.8367L56.2084 30.6187V20.7083ZM11.8334 41.4166V38.4583C11.8334 35.2041 14.4959 32.5416 17.7501 32.5416H23.6667V41.4166H11.8334ZM20.7084 50.2916C19.0813 50.2916 17.7501 48.9604 17.7501 47.3333H23.6667C23.6667 48.9604 22.3355 50.2916 20.7084 50.2916Z" fill="#1D4D4F"/>
<path d="M14.7917 17.75H29.5834V23.6667H14.7917V17.75ZM56.2084 38.4583C51.2976 38.4583 47.3334 42.4225 47.3334 47.3333C47.3334 52.2442 51.2976 56.2083 56.2084 56.2083C61.1193 56.2083 65.0834 52.2442 65.0834 47.3333C65.0834 42.4225 61.1193 38.4583 56.2084 38.4583ZM56.2084 50.2917C54.5813 50.2917 53.2501 48.9604 53.2501 47.3333C53.2501 45.7062 54.5813 44.375 56.2084 44.375C57.8355 44.375 59.1668 45.7062 59.1668 47.3333C59.1668 48.9604 57.8355 50.2917 56.2084 50.2917Z" fill="#1D4D4F"/>
<path fill-rule="evenodd" clip-rule="evenodd" d="M18 38.2857C18.7101 38.2857 19.2857 37.7101 19.2857 37C19.2857 36.2899 18.7101 35.7143 18 35.7143C17.2899 35.7143 16.7143 36.2899 16.7143 37C16.7143 37.7101 17.2899 38.2857 18 38.2857ZM18 40C19.6569 40 21 38.6569 21 37C21 35.3431 19.6569 34 18 34C16.3432 34 15 35.3431 15 37C15 38.6569 16.3432 40 18 40Z" fill="#1D4D4F"/>
</svg>
